# xmcd CD database file generated by OrangeCD 5.9
#
# Track frame offsets:
#	150
#	17340
#	30322
#	40992
#	59375
#	76192
#	93065
#	107655
#	121065
#	139757
#	154837
#	170950
#
# Disc length: 2479 seconds
#
# Revision: 0
# Processed by: cddbd v1.5.1PL0 Copyright (c) Steve Scherf et al.
# Submitted via: OrangeCD 5.9
#
DISCID=8909ad0c
DTITLE=Various Artist - Country Music International
DYEAR=1995
DGENRE=
TTITLE0=Reba McEntire - Till You Love Me
TTITLE1=Rodney Crowell - Ladder Of Love
TTITLE2=The Mavericks - Just A Memory
TTITLE3=George Jones and Tammy Wynette - One
TTITLE4=Nanci Griffith - Listen To The Radio
TTITLE5=Vince Gill - You Better Think Twice
TTITLE6=Tracy Byrd - Why Don't That Telephone Ring
TTITLE7=Trisha Yearwood - I Wanna Go Far
TTITLE8=Mark Chesnutt - Almost Goodbye
TTITLE9=Marty Stuart - Now That's Country
TTITLE10=George Strait - Adalida
TTITLE11=Mark Collie - Hard Lovin' Woman
EXTD=
EXTT0=
EXTT1=
EXTT2=
EXTT3=
EXTT4=
EXTT5=
EXTT6=
EXTT7=
EXTT8=
EXTT9=
EXTT10=
EXTT11=
PLAYORDER=
